<?xml version="1.0" standalone="no"?>
<!DOCTYPE svg PUBLIC "-//W3C//DTD SVG 20010904//EN"
 "http://www.w3.org/TR/2001/REC-SVG-20010904/DTD/svg10.dtd">
<svg version="1.0" xmlns="http://www.w3.org/2000/svg"
 width="72.000000pt" height="72.000000pt" viewBox="0 0 72.000000 72.000000"
 preserveAspectRatio="xMidYMid meet">
<metadata>
Created by potrace 1.16, written by Peter Selinger 2001-2019
</metadata>
<g transform="translate(0.000000,72.000000) scale(0.055385,-0.055385)"
fill="#fff" stroke="none">
<path d="M687 1063 c-4 -3 -7 -34 -7 -69 0 -87 -4 -94 -56 -94 -45 0 -51 4
-34 30 6 10 10 11 10 3 0 -7 5 -13 11 -13 14 0 4 109 -12 125 -14 14 -29 -12
-29 -51 0 -65 -11 -94 -36 -94 -12 0 -29 7 -37 15 -8 8 -17 12 -20 9 -9 -9
-14 44 -6 58 6 9 9 5 9 -12 0 -17 3 -21 9 -12 12 19 1 62 -15 62 -20 0 -36
-47 -29 -82 6 -26 5 -28 -27 -28 -27 0 -37 6 -52 30 -19 34 -43 32 -25 -2 11
-20 9 -20 -47 -15 -165 18 -210 18 -249 4 -22 -8 -41 -21 -43 -30 -3 -15 0
-15 43 0 49 16 53 16 255 -7 52 -6 196 -12 320 -14 176 -3 235 -8 271 -20 33
-12 52 -14 70 -7 23 9 22 10 -11 11 -19 1 -44 5 -55 9 -25 10 49 21 149 22 39
0 105 4 146 8 41 5 79 4 84 0 17 -16 26 -10 26 17 l0 27 -62 -7 c-254 -27
-388 -33 -422 -20 -21 8 -20 44 2 60 16 13 16 13 0 14 -20 0 -23 22 -8 51 12
22 7 24 -18 8 -13 -8 -16 -21 -13 -55 5 -74 -4 -94 -44 -94 -35 0 -35 0 -35
44 0 36 4 45 23 51 l22 8 -22 4 c-26 5 -33 43 -9 43 8 0 18 5 21 10 7 11 -38
14 -48 3z"/>
<path d="M31 794 c-14 -72 -14 -127 0 -339 9 -132 15 -173 27 -182 9 -7 19
-13 24 -13 4 0 5 52 2 116 -4 104 -3 116 11 110 19 -7 95 29 95 45 0 6 13 30
28 53 71 105 36 216 -77 245 -103 26 -97 28 -110 -35z"/>
<path d="M856 752 c-34 -54 -149 -259 -180 -319 -14 -29 -26 -67 -25 -85 0
-29 1 -31 10 -12 6 11 25 26 42 33 51 21 100 38 128 44 l25 6 -4 -87 c-3 -78
-2 -85 11 -67 8 11 20 51 26 89 7 39 15 74 18 79 3 4 7 50 9 100 3 51 8 117
12 148 10 66 2 94 -28 102 -16 4 -26 -3 -44 -31z m23 -167 c-6 -66 -15 -125
-21 -132 -6 -7 -21 -13 -33 -13 -12 0 -42 -7 -65 -15 -24 -8 -45 -13 -48 -10
-2 2 9 26 25 52 16 26 56 92 88 146 32 53 59 96 61 94 2 -2 -1 -57 -7 -122z"/>
<path d="M1241 777 c-8 -11 -21 -11 -59 -4 -67 14 -119 2 -158 -37 -55 -55
-57 -127 -7 -186 34 -41 70 -55 99 -40 17 10 27 9 47 -5 31 -20 41 -47 32 -83
-10 -41 -24 -52 -64 -52 -52 0 -71 18 -85 81 -9 38 -18 55 -30 57 -28 6 -39
-11 -25 -41 10 -21 7 -34 -15 -82 -43 -94 -32 -155 27 -155 37 0 57 15 57 42
0 21 -30 24 -48 6 -17 -17 -26 -3 -18 27 6 25 8 25 100 25 106 0 144 17 177
80 57 107 -29 230 -148 213 -44 -7 -68 29 -52 75 20 58 105 55 122 -3 22 -73
49 -83 57 -20 3 22 14 52 24 67 18 28 15 48 -8 48 -8 0 -19 -6 -25 -13z"/>
<path d="M315 768 c-7 -20 -23 -202 -30 -335 -5 -118 -5 -123 14 -123 16 0 21
9 27 45 8 56 26 54 38 -3 7 -32 14 -42 29 -42 18 0 19 4 11 88 -4 48 -9 105
-10 127 -4 53 -23 204 -29 233 -6 24 -42 31 -50 10z"/>
<path d="M524 761 c-56 -34 -69 -78 -69 -231 0 -131 1 -136 29 -179 27 -42 29
-43 69 -38 51 7 77 36 77 84 0 48 -32 42 -40 -7 -8 -48 -17 -60 -43 -60 -50 0
-52 8 -52 177 0 134 3 165 19 201 20 45 48 61 71 42 21 -17 19 -47 -5 -77 -35
-44 -18 -81 20 -43 14 14 20 33 20 68 0 26 -4 52 -8 59 -14 22 -56 24 -88 4z"/>
</g>
</svg>
