<?xml version="1.0" standalone="no"?>
<!DOCTYPE svg PUBLIC "-//W3C//DTD SVG 20010904//EN"
 "http://www.w3.org/TR/2001/REC-SVG-20010904/DTD/svg10.dtd">
<svg version="1.0" xmlns="http://www.w3.org/2000/svg"
 width="224.000000pt" height="224.000000pt" viewBox="0 0 224.000000 224.000000"
 preserveAspectRatio="xMidYMid meet">
<metadata>
Created by potrace 1.16, written by Peter Selinger 2001-2019
</metadata>
<g transform="translate(0.000000,224.000000) scale(0.100000,-0.100000)"
fill="#000000" stroke="none">
<path d="M435 1708 c-175 -33 -334 -188 -375 -367 -18 -78 -8 -212 21 -283
171 -415 751 -407 907 12 83 227 -22 487 -240 594 -108 53 -198 66 -313 44z
m30 -67 c-72 -21 -107 -38 -160 -81 -192 -153 -208 -452 -32 -623 61 -59 128
-96 207 -113 42 -9 47 -13 24 -13 -50 -1 -154 35 -210 73 -153 103 -220 295
-165 474 43 142 159 251 306 288 76 19 98 15 30 -5z m18 -72 c-47 -15 -77 -33
-121 -74 -101 -94 -140 -218 -108 -345 32 -125 121 -218 250 -260 58 -19 59
-20 16 -14 -110 14 -227 100 -277 203 -25 50 -28 67 -28 156 0 90 3 105 27
152 49 92 106 145 203 185 22 9 54 17 70 17 22 0 14 -5 -32 -20z m50 -58
c-273 -94 -262 -477 17 -562 l25 -7 -25 -1 c-37 -1 -102 32 -150 75 -168 152
-110 422 107 500 21 7 47 13 58 13 11 0 -3 -8 -32 -18z m161 -144 c24 -18 11
-51 -14 -37 -36 20 -87 12 -109 -16 -24 -30 -28 -97 -10 -138 15 -33 62 -52
97 -40 22 8 28 17 30 47 3 35 2 37 -27 37 -21 0 -31 5 -31 15 0 11 12 15 45
15 l45 0 0 -63 c0 -59 -2 -65 -25 -75 -46 -21 -110 -15 -144 14 -69 58 -59
197 17 238 34 19 102 20 126 3z m231 1 c28 -12 30 -19 14 -35 -8 -8 -18 -7
-38 3 -33 16 -68 8 -76 -17 -9 -27 1 -37 60 -64 76 -33 95 -77 54 -129 -17
-21 -29 -26 -65 -26 -25 0 -59 7 -76 16 -27 14 -29 18 -16 30 13 13 19 13 46
-3 41 -24 87 -9 87 27 0 20 -10 30 -54 51 -84 40 -104 87 -56 134 27 28 76 33
120 13z"/>
<path d="M1093 1364 c-22 -9 -33 -21 -33 -34 0 -17 3 -19 19 -10 47 25 52 17
49 -87 l-3 -98 -32 -3 c-21 -2 -33 -9 -33 -18 0 -11 17 -14 80 -14 64 0 80 3
80 15 0 10 -10 15 -30 15 l-30 0 0 125 c0 139 0 139 -67 109z"/>
</g>
</svg>
